<?xml version="1.0" encoding="UTF-8"?>
<svg width="30px" height="31px" viewBox="0 0 30 31" version="1.1" xmlns="http://www.w3.org/2000/svg" xmlns:xlink="http://www.w3.org/1999/xlink">
    <!-- Generator: sketchtool 51.2 (57519) - http://www.bohemiancoding.com/sketch -->
    <title>25E96EFF-C6EF-47C0-A7D4-B0A4D8849EEB</title>
    <desc>Created with sketchtool.</desc>
    <defs></defs>
    <g id="Desktop" stroke="none" stroke-width="1" fill="none" fill-rule="evenodd">
        <g id="XC_LMM-Dashboard-2" transform="translate(-28.000000, -134.000000)" fill="#FAFAFA" fill-rule="nonzero">
            <path d="M57.9928042,142.711855 C57.9910263,142.701189 57.9874714,142.692301 57.9839165,142.681636 C57.9803611,142.672748 57.9768057,142.66386 57.9732508,142.654973 C57.9714734,142.64964 57.9714734,142.646085 57.967918,142.640752 C57.9643631,142.635419 57.9608078,142.633642 57.9590303,142.630086 C57.9536975,142.621199 57.9483647,142.614088 57.9412549,142.606978 C57.9341442,142.59809 57.9270343,142.59098 57.9181462,142.58387 C57.9110359,142.57676 57.9021482,142.571427 57.8932605,142.566094 C57.8897051,142.562539 57.8879277,142.558984 57.8843728,142.557206 L50.4987984,138.296372 L43.1164095,134.026663 C43.1075218,134.02133 43.098634,134.02133 43.0879684,134.017775 C43.0737479,134.010665 43.0595274,134.005332 43.0453068,134.003555 C43.0310863,134 43.0186437,134 43.0044232,134 C42.9884247,134 42.9742042,134 42.9564283,134.003555 C42.9439852,134.00711 42.9297647,134.012443 42.9173216,134.015998 C42.9066564,134.019553 42.8959913,134.02133 42.8871031,134.026663 L35.5065344,138.296372 C35.501202,138.298149 35.4994241,138.303482 35.4958692,138.305259 C35.4869815,138.310592 35.4816487,138.315924 35.472761,138.321257 C35.4638728,138.328367 35.4567625,138.335478 35.4496523,138.344365 C35.442542,138.351476 35.4372092,138.358586 35.4318768,138.367474 C35.4300994,138.371029 35.4247666,138.372807 35.4229887,138.376362 C35.4212112,138.379917 35.4212112,138.38525 35.4194338,138.388805 C35.4141009,138.397693 35.410546,138.40658 35.4069907,138.417246 C35.4034358,138.426134 35.4016583,138.436799 35.398103,138.447465 C35.3963255,138.456352 35.3945476,138.467018 35.3945476,138.475906 C35.3945476,138.481238 35.3909927,138.484793 35.3909927,138.488349 L35.3909927,146.880054 L28.1155421,151.076908 C28.1119868,151.080463 28.1084319,151.084018 28.1048765,151.085795 C28.0959888,151.091128 28.0888785,151.096461 28.0799908,151.103571 C28.0711026,151.110682 28.0657703,151.117792 28.05866,151.124902 C28.0515498,151.132012 28.0462169,151.139123 28.0408841,151.14801 C28.0373292,151.151566 28.0337739,151.155121 28.0319964,151.158676 C28.030219,151.162231 28.030219,151.167564 28.0266636,151.172896 C28.0213312,151.181784 28.0195533,151.190672 28.0159984,151.19956 C28.0124431,151.210225 28.0088882,151.219113 28.0071107,151.229779 C28.0053328,151.240444 28.0035554,151.249332 28.0035554,151.259997 C28.0035554,151.26533 28,151.268885 28,151.27244 L28,159.802938 C28,159.811826 28.0035554,159.820714 28.0053328,159.829601 C28.0071107,159.845599 28.0088882,159.861598 28.0142205,159.877596 C28.0195533,159.891817 28.0248862,159.902482 28.0319964,159.914925 C28.0391067,159.927368 28.0462169,159.939811 28.0568821,159.950476 C28.0675477,159.961142 28.0782134,159.971807 28.090656,159.980695 C28.0977663,159.987805 28.1030991,159.994916 28.1119868,160.000248 L35.5012016,164.261083 L35.502979,164.261083 C35.5065339,164.26286 35.5100893,164.26286 35.5136442,164.264638 C35.5438632,164.280636 35.5794136,164.291302 35.6167419,164.291302 C35.6540707,164.291302 35.6878446,164.280636 35.7180649,164.264638 C35.7216198,164.26286 35.7269526,164.26286 35.7287305,164.261083 L43.1111194,160.000248 L50.4935084,155.73054 L57.8809029,151.46793 C57.8897907,151.462598 57.893346,151.455487 57.9004563,151.450155 C57.9128994,151.441267 57.9271199,151.430602 57.9360076,151.418159 C57.9448953,151.407493 57.9520056,151.39505 57.9591159,151.382607 C57.9662261,151.370164 57.9733364,151.357722 57.9786692,151.343501 C57.984002,151.32928 57.9857795,151.313282 57.9875569,151.297285 C57.9893344,151.288398 57.9928897,151.27951 57.9928897,151.268844 L58,142.754274 C58,142.748941 57.9982225,142.745386 57.9964446,142.741831 C57.9982225,142.731165 57.9946672,142.722277 57.9928897,142.711612 L57.9928042,142.711855 Z M28.9137548,151.935859 L35.3928557,155.672286 L35.3928557,163.152512 L28.9137548,159.416085 L28.9137548,151.935859 Z M36.3029696,139.149669 L42.7752446,142.886096 L42.7752446,150.885087 L36.2870426,147.139741 C36.2941529,147.098857 36.3030406,147.059751 36.3030406,147.017089 L36.3029696,139.149669 Z M50.0434143,139.083899 L50.1571785,139.149669 L50.1571785,146.885637 L43.2298465,150.885178 L43.2298465,142.886187 L49.92965,139.018203 L50.0434143,139.083899 Z M43.0023181,142.493277 L36.5282228,138.755075 L43.0004978,135.011504 L49.4745931,138.755075 L43.0023181,142.493277 Z M36.0590591,147.532578 L42.5472611,151.277924 L35.6199291,155.277465 L29.1408282,151.541038 L35.9612218,147.607298 C35.9967732,147.587745 36.0287705,147.559303 36.0589863,147.532642 L36.0590591,147.532578 Z M35.8475304,155.672182 L42.7748624,151.67264 L42.7748624,159.152867 L42.6610982,159.218636 L35.8475304,163.152376 L35.8475304,155.672182 Z M43.2299193,151.409572 L50.1572513,147.410031 L50.1572513,154.884797 L50.0434871,154.950566 L43.2299193,158.89145 L43.2299193,151.409572 Z M50.6123083,147.148737 L57.0895889,143.41231 L57.0895889,150.885255 L50.6123083,154.621683 L50.6123083,147.148737 Z M50.6123083,146.6226 L50.6123083,139.410858 L56.8620605,143.017548 L50.6123083,146.6226 Z" id="Components"></path>
        </g>
    </g>
</svg>