<?xml version="1.0" encoding="UTF-8"?>
<svg width="22px" height="22px" viewBox="0 0 22 22" version="1.1" xmlns="http://www.w3.org/2000/svg" xmlns:xlink="http://www.w3.org/1999/xlink">
    <!-- Generator: sketchtool 51.2 (57519) - http://www.bohemiancoding.com/sketch -->
    <title>6A8753FF-0B0A-4950-BE7B-6851D197835A</title>
    <desc>Created with sketchtool.</desc>
    <defs></defs>
    <g id="Desktop" stroke="none" stroke-width="1" fill="none" fill-rule="evenodd">
        <g id="XC_LMM-Dashboard-2" transform="translate(-32.000000, -80.000000)" fill="#000000" fill-rule="nonzero">
            <g id="Global" transform="translate(32.000000, 80.000000)">
                <path d="M11,4.54421093e-16 C9.63997805,4.54421093e-16 8.52277696,1.07923795 8.44981814,2.4222737 C5.55781449,3.28266077 3.27951423,5.55704704 2.4222737,8.44981814 C1.07724258,8.52076624 0,9.63895478 0,11 C0,12.3610452 1.077217,13.4792184 2.4222737,13.5501819 C3.2806654,16.4421855 5.55807031,18.717416 8.44981814,19.5777263 C8.52076624,20.9227574 9.63895478,22 11,22 C12.3610452,22 13.4792184,20.922783 13.5501819,19.5777263 C16.4421855,18.7183369 18.7194625,16.4419297 19.5777263,13.5501819 C20.9227574,13.4792338 22,12.3610452 22,11 C22,9.63895478 20.922783,8.52078159 19.5777263,8.44981814 C18.7203323,5.55679123 16.4419297,3.28258402 13.5501819,2.4222737 C13.4772333,1.07923795 12.3600475,0 11,4.54421093e-16 Z M11,1.02326533 C11.8533777,1.02326533 12.534898,1.70478563 12.534898,2.55816333 C12.534898,3.41154104 11.8533777,4.09306133 11,4.09306133 C10.1466223,4.09306133 9.465102,3.41154104 9.465102,2.55816333 C9.465102,1.70478563 10.1466223,1.02326533 11,1.02326533 Z M8.60172188,3.44553903 C8.96446944,4.41984111 9.90377585,5.11632666 11,5.11632666 C12.0962242,5.11632666 13.0355306,4.41981553 13.3982781,3.44553903 C15.8505079,4.22199276 17.7791328,6.15770379 18.5545121,8.60995916 C17.5822054,8.97370441 16.8837245,9.90602703 16.8837245,11.0002558 C16.8837245,12.0944846 17.582231,13.0347887 18.5545121,13.3985339 C17.7770607,15.846773 15.8474637,17.7804119 13.3982781,18.554768 C13.0345329,17.5844566 12.0932055,16.8839803 11,16.8839803 C9.90679448,16.8839803 8.96546712,17.5844822 8.60172188,18.554768 C6.15148746,17.7793375 4.2229137,15.8466962 3.44548787,13.3985339 C4.41779458,13.0347887 5.1162755,12.094459 5.1162755,11.0002558 C5.1162755,9.90605261 4.417769,8.97370441 3.44548787,8.60995916 C4.22091833,6.15772937 6.14946651,4.22219742 8.60172188,3.44553903 Z M2.55806101,9.46515316 C3.41143871,9.46515316 4.092959,10.1466735 4.092959,11.0000512 C4.092959,11.8534289 3.41143871,12.5349492 2.55806101,12.5349492 C1.7046833,12.5349492 1.02316301,11.8534289 1.02316301,11.0000512 C1.02316301,10.1466735 1.7046833,9.46515316 2.55806101,9.46515316 Z M19.441939,9.46515316 C20.2953167,9.46515316 20.976837,10.1466735 20.976837,11.0000512 C20.976837,11.8534289 20.2953167,12.5349492 19.441939,12.5349492 C18.5885613,12.5349492 17.907041,11.8534289 17.907041,11.0000512 C17.907041,10.1466735 18.5885613,9.46515316 19.441939,9.46515316 Z M11,17.9070922 C11.8533777,17.9070922 12.534898,18.5886125 12.534898,19.4419902 C12.534898,20.2953679 11.8533777,20.9768882 11,20.9768882 C10.1466223,20.9768882 9.465102,20.2953679 9.465102,19.4419902 C9.465102,18.5886125 10.1466223,17.9070922 11,17.9070922 Z" id="Shape"></path>
            </g>
        </g>
    </g>
</svg>